<mxfile host="app.diagrams.net" modified="2023-06-13T07:40:56.198Z" agent="Mozilla/5.0 (Macintosh; Intel Mac OS X 10.15; rv:109.0) Gecko/20100101 Firefox/114.0" version="21.3.8" etag="f9ttHNj4zCL3kCLWjjLl" type="github">
  <diagram name="第 1 页" id="UN8FtWItk8OfrNlXkemu">
    <mxGraphModel>
      <root>
        <mxCell id="0" />
        <mxCell id="1" parent="0" />
      </root>
    </mxGraphModel>
  </diagram>
</mxfile>
